<svg width="246" height="30" viewBox="0 0 246 30" fill="none" xmlns="http://www.w3.org/2000/svg">
<rect x="0.5" y="0.5" width="245" height="29" rx="3.5" stroke="#CFCFCF"/>
<path d="M122 1L122 29" stroke="#CFCFCF" stroke-linecap="round"/>
<path d="M43.002 20H41.742V15.338H36.618V20H35.358V10.004H36.618V14.232H41.742V10.004H43.002V20ZM52.091 16.234C52.091 16.8593 52.007 17.4147 51.839 17.9C51.6803 18.376 51.447 18.782 51.139 19.118C50.8403 19.454 50.4716 19.7107 50.033 19.888C49.6036 20.056 49.123 20.14 48.591 20.14C48.0963 20.14 47.639 20.056 47.219 19.888C46.799 19.7107 46.435 19.454 46.127 19.118C45.819 18.782 45.5763 18.376 45.399 17.9C45.231 17.4147 45.147 16.8593 45.147 16.234C45.147 15.4033 45.287 14.7033 45.567 14.134C45.847 13.5553 46.2483 13.1167 46.771 12.818C47.2936 12.51 47.9143 12.356 48.633 12.356C49.3143 12.356 49.9116 12.51 50.425 12.818C50.9476 13.1167 51.3536 13.5553 51.643 14.134C51.9416 14.7033 52.091 15.4033 52.091 16.234ZM46.421 16.234C46.421 16.822 46.4956 17.3353 46.645 17.774C46.8036 18.2033 47.0463 18.5347 47.373 18.768C47.6996 19.0013 48.115 19.118 48.619 19.118C49.123 19.118 49.5383 19.0013 49.865 18.768C50.1916 18.5347 50.4296 18.2033 50.579 17.774C50.7376 17.3353 50.817 16.822 50.817 16.234C50.817 15.6367 50.7376 15.128 50.579 14.708C50.4203 14.288 50.1776 13.966 49.851 13.742C49.5336 13.5087 49.1183 13.392 48.605 13.392C47.8396 13.392 47.2843 13.644 46.939 14.148C46.5936 14.652 46.421 15.3473 46.421 16.234ZM60.0775 14.386C60.0775 14.8527 59.9375 15.2167 59.6575 15.478C59.3775 15.7393 59.0182 15.9167 58.5795 16.01V16.066C59.0462 16.1313 59.4522 16.2993 59.7975 16.57C60.1428 16.8313 60.3155 17.242 60.3155 17.802C60.3155 18.1193 60.2548 18.4133 60.1335 18.684C60.0215 18.9547 59.8442 19.188 59.6015 19.384C59.3588 19.58 59.0462 19.734 58.6635 19.846C58.2808 19.9487 57.8188 20 57.2775 20H54.0435V12.496H57.2635C57.7955 12.496 58.2715 12.5567 58.6915 12.678C59.1208 12.79 59.4568 12.986 59.6995 13.266C59.9515 13.5367 60.0775 13.91 60.0775 14.386ZM59.0415 17.802C59.0415 17.3727 58.8782 17.0647 58.5515 16.878C58.2248 16.6913 57.7442 16.598 57.1095 16.598H55.2755V19.006H57.1375C57.7535 19.006 58.2248 18.9173 58.5515 18.74C58.8782 18.5533 59.0415 18.2407 59.0415 17.802ZM58.8315 14.54C58.8315 14.1853 58.7008 13.9287 58.4395 13.77C58.1875 13.602 57.7722 13.518 57.1935 13.518H55.2755V15.576H56.9695C57.5762 15.576 58.0382 15.492 58.3555 15.324C58.6728 15.156 58.8315 14.8947 58.8315 14.54ZM62.1099 20V12.496H63.3419V15.576H65.2879C65.9413 15.576 66.4779 15.6553 66.8979 15.814C67.3179 15.9727 67.6306 16.2107 67.8359 16.528C68.0413 16.836 68.1439 17.228 68.1439 17.704C68.1439 18.1707 68.0413 18.5767 67.8359 18.922C67.6399 19.2673 67.3273 19.5333 66.8979 19.72C66.4779 19.9067 65.9226 20 65.2319 20H62.1099ZM65.1199 19.006C65.6519 19.006 66.0859 18.9173 66.4219 18.74C66.7579 18.5533 66.9259 18.2313 66.9259 17.774C66.9259 17.3167 66.7719 17.0087 66.4639 16.85C66.1559 16.682 65.7126 16.598 65.1339 16.598H63.3419V19.006H65.1199ZM69.3899 20V12.496H70.6219V20H69.3899ZM79.0824 9.388C79.0451 9.85467 78.9284 10.2467 78.7324 10.564C78.5457 10.8813 78.2657 11.1193 77.8924 11.278C77.5191 11.4367 77.0337 11.516 76.4364 11.516C75.8297 11.516 75.3397 11.4367 74.9664 11.278C74.6024 11.1193 74.3364 10.886 74.1684 10.578C74.0004 10.2607 73.8977 9.864 73.8604 9.388H75.0084C75.0551 9.892 75.1857 10.2327 75.4004 10.41C75.6244 10.578 75.9791 10.662 76.4644 10.662C76.8937 10.662 77.2297 10.5733 77.4724 10.396C77.7244 10.2093 77.8737 9.87333 77.9204 9.388H79.0824ZM74.1684 17.074C74.1684 17.158 74.1637 17.2793 74.1544 17.438C74.1544 17.5873 74.1497 17.7507 74.1404 17.928C74.1311 18.096 74.1217 18.2593 74.1124 18.418C74.1031 18.5673 74.0937 18.6887 74.0844 18.782L78.1024 12.496H79.6144V20H78.4664V15.576C78.4664 15.4267 78.4664 15.2307 78.4664 14.988C78.4757 14.7453 78.4851 14.5073 78.4944 14.274C78.5037 14.0313 78.5131 13.8493 78.5224 13.728L74.5324 20H73.0064V12.496H74.1684V17.074Z" fill="#D10000"/>
<path d="M170.358 20V10.004H176.294V11.11H171.618V14.232H173.102C174.101 14.232 174.875 14.358 175.426 14.61C175.977 14.8527 176.359 15.1887 176.574 15.618C176.789 16.038 176.896 16.5233 176.896 17.074C176.896 17.6807 176.775 18.2033 176.532 18.642C176.299 19.0807 175.916 19.4167 175.384 19.65C174.852 19.8833 174.152 20 173.284 20H170.358ZM173.158 18.922C174.054 18.922 174.684 18.7727 175.048 18.474C175.412 18.166 175.594 17.6993 175.594 17.074C175.594 16.6447 175.505 16.304 175.328 16.052C175.16 15.7907 174.88 15.604 174.488 15.492C174.105 15.38 173.592 15.324 172.948 15.324H171.618V18.922H173.158ZM179.153 19.888C179.135 19.9253 179.111 19.9533 179.083 19.972C179.055 19.9907 179.018 20 178.971 20H178.257C178.229 20 178.211 19.9907 178.201 19.972C178.201 19.944 178.211 19.916 178.229 19.888L184.067 10.186C184.095 10.1487 184.119 10.1253 184.137 10.116C184.165 10.1067 184.193 10.102 184.221 10.102H184.921C184.968 10.102 184.991 10.1113 184.991 10.13C185.001 10.1487 184.977 10.2 184.921 10.284L179.153 19.888ZM190.773 17.158C190.474 17.8207 190.171 18.376 189.863 18.824C189.564 19.2627 189.209 19.594 188.799 19.818C188.388 20.0327 187.865 20.14 187.231 20.14C186.969 20.14 186.722 20.1213 186.489 20.084C186.265 20.0467 186.059 19.9953 185.873 19.93V18.684C186.059 18.768 186.26 18.838 186.475 18.894C186.689 18.9407 186.913 18.964 187.147 18.964C187.492 18.964 187.786 18.9173 188.029 18.824C188.281 18.7213 188.5 18.558 188.687 18.334C188.883 18.11 189.065 17.8113 189.233 17.438L185.383 10.004H186.769L189.555 15.506C189.592 15.5713 189.629 15.6507 189.667 15.744C189.704 15.828 189.741 15.9167 189.779 16.01C189.825 16.1033 189.863 16.192 189.891 16.276H189.947C189.975 16.2107 190.003 16.136 190.031 16.052C190.068 15.9587 190.101 15.87 190.129 15.786C190.166 15.6927 190.199 15.6133 190.227 15.548L192.635 10.004H193.965L190.773 17.158Z" fill="#D10000"/>
</svg>
