<svg width="247" height="30" viewBox="0 0 247 30" fill="none" xmlns="http://www.w3.org/2000/svg">
<rect x="0.5" y="0.5" width="246" height="29" rx="3.5" stroke="#CFCFCF"/>
<path d="M83 1L83 29" stroke="#CFCFCF" stroke-linecap="round"/>
<path d="M165 1L165 29" stroke="#CFCFCF" stroke-linecap="round"/>
<path d="M8.50839 20V10.004H16.0124V20H14.7664V11.11H9.76839V20H8.50839ZM21.4786 12.356C22.1226 12.356 22.6733 12.496 23.1306 12.776C23.5973 13.056 23.952 13.4527 24.1946 13.966C24.4466 14.47 24.5726 15.0627 24.5726 15.744V16.486H19.4346C19.4533 17.3353 19.668 17.984 20.0786 18.432C20.4986 18.8707 21.082 19.09 21.8286 19.09C22.3046 19.09 22.7246 19.048 23.0886 18.964C23.462 18.8707 23.8446 18.74 24.2366 18.572V19.65C23.854 19.818 23.476 19.9393 23.1026 20.014C22.7293 20.098 22.286 20.14 21.7726 20.14C21.0633 20.14 20.4333 19.9953 19.8826 19.706C19.3413 19.4167 18.9166 18.9873 18.6086 18.418C18.31 17.8393 18.1606 17.1347 18.1606 16.304C18.1606 15.4827 18.296 14.778 18.5666 14.19C18.8466 13.602 19.234 13.1493 19.7286 12.832C20.2326 12.5147 20.816 12.356 21.4786 12.356ZM21.4646 13.364C20.8766 13.364 20.41 13.5553 20.0646 13.938C19.7286 14.3113 19.528 14.834 19.4626 15.506H23.2846C23.2846 15.0767 23.2193 14.7033 23.0886 14.386C22.958 14.0687 22.7573 13.8213 22.4866 13.644C22.2253 13.4573 21.8846 13.364 21.4646 13.364ZM30.053 12.356C30.977 12.356 31.719 12.678 32.279 13.322C32.8483 13.966 33.133 14.9367 33.133 16.234C33.133 17.0833 33.0023 17.802 32.741 18.39C32.489 18.9687 32.1296 19.4073 31.663 19.706C31.2056 19.9953 30.6643 20.14 30.039 20.14C29.6563 20.14 29.3156 20.0887 29.017 19.986C28.7183 19.8833 28.4616 19.7527 28.247 19.594C28.0416 19.426 27.8643 19.244 27.715 19.048H27.631C27.6496 19.2067 27.6683 19.4073 27.687 19.65C27.7056 19.8927 27.715 20.1027 27.715 20.28V23.36H26.483V12.496H27.491L27.659 13.518H27.715C27.8643 13.3033 28.0416 13.1073 28.247 12.93C28.4616 12.7527 28.7136 12.6127 29.003 12.51C29.3016 12.4073 29.6516 12.356 30.053 12.356ZM29.829 13.392C29.325 13.392 28.919 13.49 28.611 13.686C28.303 13.8727 28.079 14.1573 27.939 14.54C27.799 14.9227 27.7243 15.408 27.715 15.996V16.234C27.715 16.85 27.7803 17.3727 27.911 17.802C28.0416 18.2313 28.261 18.558 28.569 18.782C28.8863 19.006 29.3156 19.118 29.857 19.118C30.3143 19.118 30.6876 18.992 30.977 18.74C31.2756 18.488 31.495 18.1473 31.635 17.718C31.7843 17.2793 31.859 16.78 31.859 16.22C31.859 15.3613 31.691 14.6753 31.355 14.162C31.0283 13.6487 30.5196 13.392 29.829 13.392ZM37.9943 12.356C38.6383 12.356 39.1889 12.496 39.6463 12.776C40.1129 13.056 40.4676 13.4527 40.7103 13.966C40.9623 14.47 41.0883 15.0627 41.0883 15.744V16.486H35.9503C35.9689 17.3353 36.1836 17.984 36.5943 18.432C37.0143 18.8707 37.5976 19.09 38.3443 19.09C38.8203 19.09 39.2403 19.048 39.6043 18.964C39.9776 18.8707 40.3603 18.74 40.7523 18.572V19.65C40.3696 19.818 39.9916 19.9393 39.6183 20.014C39.2449 20.098 38.8016 20.14 38.2883 20.14C37.5789 20.14 36.9489 19.9953 36.3983 19.706C35.8569 19.4167 35.4323 18.9873 35.1243 18.418C34.8256 17.8393 34.6763 17.1347 34.6763 16.304C34.6763 15.4827 34.8116 14.778 35.0823 14.19C35.3623 13.602 35.7496 13.1493 36.2443 12.832C36.7483 12.5147 37.3316 12.356 37.9943 12.356ZM37.9803 13.364C37.3923 13.364 36.9256 13.5553 36.5803 13.938C36.2443 14.3113 36.0436 14.834 35.9783 15.506H39.8003C39.8003 15.0767 39.7349 14.7033 39.6043 14.386C39.4736 14.0687 39.2729 13.8213 39.0023 13.644C38.7409 13.4573 38.4003 13.364 37.9803 13.364ZM48.5706 12.496V18.964H49.6626V22.604H48.4726V20H43.2506V22.604H42.0746V18.964H42.6766C43.1059 18.3667 43.4606 17.718 43.7406 17.018C44.0299 16.3087 44.2446 15.5713 44.3846 14.806C44.5339 14.0313 44.6133 13.2613 44.6226 12.496H48.5706ZM45.7146 13.462C45.6773 14.0967 45.5793 14.7547 45.4206 15.436C45.2619 16.108 45.0566 16.752 44.8046 17.368C44.5619 17.984 44.2773 18.516 43.9506 18.964H47.3806V13.462H45.7146ZM52.3654 12.496V15.618H56.4394V12.496H57.6714V20H56.4394V16.654H52.3654V20H51.1334V12.496H52.3654ZM61.2094 17.074C61.2094 17.158 61.2048 17.2793 61.1954 17.438C61.1954 17.5873 61.1908 17.7507 61.1814 17.928C61.1721 18.096 61.1628 18.2593 61.1534 18.418C61.1441 18.5673 61.1348 18.6887 61.1254 18.782L65.1434 12.496H66.6554V20H65.5074V15.576C65.5074 15.4267 65.5074 15.2307 65.5074 14.988C65.5168 14.7453 65.5261 14.5073 65.5354 14.274C65.5448 14.0313 65.5541 13.8493 65.5634 13.728L61.5734 20H60.0474V12.496H61.2094V17.074ZM75.1195 9.388C75.0822 9.85467 74.9655 10.2467 74.7695 10.564C74.5828 10.8813 74.3028 11.1193 73.9295 11.278C73.5562 11.4367 73.0708 11.516 72.4735 11.516C71.8668 11.516 71.3768 11.4367 71.0035 11.278C70.6395 11.1193 70.3735 10.886 70.2055 10.578C70.0375 10.2607 69.9348 9.864 69.8975 9.388H71.0455C71.0922 9.892 71.2228 10.2327 71.4375 10.41C71.6615 10.578 72.0162 10.662 72.5015 10.662C72.9308 10.662 73.2668 10.5733 73.5095 10.396C73.7615 10.2093 73.9108 9.87333 73.9575 9.388H75.1195ZM70.2055 17.074C70.2055 17.158 70.2008 17.2793 70.1915 17.438C70.1915 17.5873 70.1868 17.7507 70.1775 17.928C70.1682 18.096 70.1588 18.2593 70.1495 18.418C70.1402 18.5673 70.1308 18.6887 70.1215 18.782L74.1395 12.496H75.6515V20H74.5035V15.576C74.5035 15.4267 74.5035 15.2307 74.5035 14.988C74.5128 14.7453 74.5222 14.5073 74.5315 14.274C74.5408 14.0313 74.5502 13.8493 74.5595 13.728L70.5695 20H69.0435V12.496H70.2055V17.074Z" fill="#D10000"/>
<path d="M105.706 12.342C105.706 13.0233 105.492 13.5647 105.062 13.966C104.633 14.358 104.059 14.61 103.34 14.722V14.778C104.18 14.89 104.82 15.1513 105.258 15.562C105.697 15.9727 105.916 16.5093 105.916 17.172C105.916 17.76 105.767 18.278 105.468 18.726C105.17 19.1647 104.722 19.51 104.124 19.762C103.527 20.014 102.78 20.14 101.884 20.14C101.343 20.14 100.825 20.098 100.33 20.014C99.8451 19.9393 99.3924 19.7993 98.9724 19.594V18.446C99.2618 18.586 99.5698 18.7073 99.8964 18.81C100.232 18.9033 100.568 18.978 100.904 19.034C101.24 19.0807 101.562 19.104 101.87 19.104C102.766 19.104 103.443 18.936 103.9 18.6C104.367 18.264 104.6 17.788 104.6 17.172C104.6 16.5373 104.33 16.0753 103.788 15.786C103.247 15.4967 102.491 15.352 101.52 15.352H100.092V14.302H101.45C102.113 14.302 102.659 14.2273 103.088 14.078C103.527 13.9287 103.854 13.7187 104.068 13.448C104.292 13.168 104.404 12.8413 104.404 12.468C104.404 11.964 104.218 11.5767 103.844 11.306C103.471 11.0353 102.986 10.9 102.388 10.9C101.763 10.9 101.24 10.9793 100.82 11.138C100.41 11.2967 100.008 11.502 99.6164 11.754L99.0144 10.9C99.2758 10.704 99.5744 10.5313 99.9104 10.382C100.256 10.2233 100.638 10.0973 101.058 10.004C101.478 9.91067 101.926 9.864 102.402 9.864C103.121 9.864 103.723 9.97133 104.208 10.186C104.703 10.4007 105.076 10.6947 105.328 11.068C105.58 11.432 105.706 11.8567 105.706 12.342ZM110.703 12.37C111.618 12.37 112.294 12.5707 112.733 12.972C113.172 13.3733 113.391 14.0127 113.391 14.89V20H112.495L112.257 18.936H112.201C111.986 19.2067 111.762 19.4353 111.529 19.622C111.305 19.7993 111.044 19.93 110.745 20.014C110.456 20.098 110.101 20.14 109.681 20.14C109.233 20.14 108.827 20.0607 108.463 19.902C108.108 19.7433 107.828 19.5007 107.623 19.174C107.418 18.838 107.315 18.418 107.315 17.914C107.315 17.1673 107.609 16.5933 108.197 16.192C108.785 15.7813 109.69 15.5573 110.913 15.52L112.187 15.478V15.03C112.187 14.4047 112.052 13.9707 111.781 13.728C111.51 13.4853 111.128 13.364 110.633 13.364C110.241 13.364 109.868 13.4247 109.513 13.546C109.158 13.658 108.827 13.7887 108.519 13.938L108.141 13.014C108.468 12.8367 108.855 12.6873 109.303 12.566C109.751 12.4353 110.218 12.37 110.703 12.37ZM111.067 16.374C110.134 16.4113 109.485 16.5607 109.121 16.822C108.766 17.0833 108.589 17.452 108.589 17.928C108.589 18.348 108.715 18.656 108.967 18.852C109.228 19.048 109.56 19.146 109.961 19.146C110.596 19.146 111.123 18.9733 111.543 18.628C111.963 18.2733 112.173 17.732 112.173 17.004V16.332L111.067 16.374ZM121.281 12.496V18.964H122.373V22.604H121.183V20H115.961V22.604H114.785V18.964H115.387C115.816 18.3667 116.171 17.718 116.451 17.018C116.74 16.3087 116.955 15.5713 117.095 14.806C117.244 14.0313 117.323 13.2613 117.333 12.496H121.281ZM118.425 13.462C118.387 14.0967 118.289 14.7547 118.131 15.436C117.972 16.108 117.767 16.752 117.515 17.368C117.272 17.984 116.987 18.516 116.661 18.964H120.091V13.462H118.425ZM125.075 12.496V15.618H129.149V12.496H130.381V20H129.149V16.654H125.075V20H123.843V12.496H125.075ZM133.919 17.074C133.919 17.158 133.915 17.2793 133.905 17.438C133.905 17.5873 133.901 17.7507 133.891 17.928C133.882 18.096 133.873 18.2593 133.863 18.418C133.854 18.5673 133.845 18.6887 133.835 18.782L137.853 12.496H139.365V20H138.217V15.576C138.217 15.4267 138.217 15.2307 138.217 14.988C138.227 14.7453 138.236 14.5073 138.245 14.274C138.255 14.0313 138.264 13.8493 138.273 13.728L134.283 20H132.757V12.496H133.919V17.074ZM147.829 9.388C147.792 9.85467 147.675 10.2467 147.479 10.564C147.293 10.8813 147.013 11.1193 146.639 11.278C146.266 11.4367 145.781 11.516 145.183 11.516C144.577 11.516 144.087 11.4367 143.713 11.278C143.349 11.1193 143.083 10.886 142.915 10.578C142.747 10.2607 142.645 9.864 142.607 9.388H143.755C143.802 9.892 143.933 10.2327 144.147 10.41C144.371 10.578 144.726 10.662 145.211 10.662C145.641 10.662 145.977 10.5733 146.219 10.396C146.471 10.2093 146.621 9.87333 146.667 9.388H147.829ZM142.915 17.074C142.915 17.158 142.911 17.2793 142.901 17.438C142.901 17.5873 142.897 17.7507 142.887 17.928C142.878 18.096 142.869 18.2593 142.859 18.418C142.85 18.5673 142.841 18.6887 142.831 18.782L146.849 12.496H148.361V20H147.213V15.576C147.213 15.4267 147.213 15.2307 147.213 14.988C147.223 14.7453 147.232 14.5073 147.241 14.274C147.251 14.0313 147.26 13.8493 147.269 13.728L143.279 20H141.753V12.496H142.915V17.074Z" fill="#D10000"/>
<path d="M179.549 20V10.004H187.053V20H185.807V11.11H180.809V20H179.549ZM196.146 16.234C196.146 16.8593 196.062 17.4147 195.894 17.9C195.735 18.376 195.502 18.782 195.194 19.118C194.895 19.454 194.526 19.7107 194.088 19.888C193.658 20.056 193.178 20.14 192.646 20.14C192.151 20.14 191.694 20.056 191.274 19.888C190.854 19.7107 190.49 19.454 190.182 19.118C189.874 18.782 189.631 18.376 189.454 17.9C189.286 17.4147 189.202 16.8593 189.202 16.234C189.202 15.4033 189.342 14.7033 189.622 14.134C189.902 13.5553 190.303 13.1167 190.826 12.818C191.348 12.51 191.969 12.356 192.688 12.356C193.369 12.356 193.966 12.51 194.48 12.818C195.002 13.1167 195.408 13.5553 195.698 14.134C195.996 14.7033 196.146 15.4033 196.146 16.234ZM190.476 16.234C190.476 16.822 190.55 17.3353 190.7 17.774C190.858 18.2033 191.101 18.5347 191.428 18.768C191.754 19.0013 192.17 19.118 192.674 19.118C193.178 19.118 193.593 19.0013 193.92 18.768C194.246 18.5347 194.484 18.2033 194.634 17.774C194.792 17.3353 194.872 16.822 194.872 16.234C194.872 15.6367 194.792 15.128 194.634 14.708C194.475 14.288 194.232 13.966 193.906 13.742C193.588 13.5087 193.173 13.392 192.66 13.392C191.894 13.392 191.339 13.644 190.994 14.148C190.648 14.652 190.476 15.3473 190.476 16.234ZM203.81 20H202.564V13.518H200.352C200.259 14.7033 200.142 15.716 200.002 16.556C199.862 17.3867 199.685 18.0633 199.47 18.586C199.256 19.1087 198.999 19.4913 198.7 19.734C198.402 19.9767 198.052 20.098 197.65 20.098C197.529 20.098 197.408 20.0887 197.286 20.07C197.174 20.0607 197.081 20.0373 197.006 20V19.076C197.062 19.0947 197.123 19.1087 197.188 19.118C197.254 19.1273 197.319 19.132 197.384 19.132C197.59 19.132 197.776 19.048 197.944 18.88C198.112 18.712 198.262 18.4553 198.392 18.11C198.532 17.7647 198.658 17.3307 198.77 16.808C198.882 16.276 198.98 15.6507 199.064 14.932C199.148 14.2133 199.223 13.4013 199.288 12.496H203.81V20ZM207.424 12.496V15.618H211.498V12.496H212.73V20H211.498V16.654H207.424V20H206.192V12.496H207.424ZM215.106 20V12.496H216.338V15.576H218.284C218.937 15.576 219.474 15.6553 219.894 15.814C220.314 15.9727 220.627 16.2107 220.832 16.528C221.037 16.836 221.14 17.228 221.14 17.704C221.14 18.1707 221.037 18.5767 220.832 18.922C220.636 19.2673 220.323 19.5333 219.894 19.72C219.474 19.9067 218.919 20 218.228 20H215.106ZM218.116 19.006C218.648 19.006 219.082 18.9173 219.418 18.74C219.754 18.5533 219.922 18.2313 219.922 17.774C219.922 17.3167 219.768 17.0087 219.46 16.85C219.152 16.682 218.709 16.598 218.13 16.598H216.338V19.006H218.116ZM222.386 20V12.496H223.618V20H222.386ZM232.079 9.388C232.041 9.85467 231.925 10.2467 231.729 10.564C231.542 10.8813 231.262 11.1193 230.889 11.278C230.515 11.4367 230.03 11.516 229.433 11.516C228.826 11.516 228.336 11.4367 227.963 11.278C227.599 11.1193 227.333 10.886 227.165 10.578C226.997 10.2607 226.894 9.864 226.857 9.388H228.005C228.051 9.892 228.182 10.2327 228.397 10.41C228.621 10.578 228.975 10.662 229.461 10.662C229.89 10.662 230.226 10.5733 230.469 10.396C230.721 10.2093 230.87 9.87333 230.917 9.388H232.079ZM227.165 17.074C227.165 17.158 227.16 17.2793 227.151 17.438C227.151 17.5873 227.146 17.7507 227.137 17.928C227.127 18.096 227.118 18.2593 227.109 18.418C227.099 18.5673 227.09 18.6887 227.081 18.782L231.099 12.496H232.611V20H231.463V15.576C231.463 15.4267 231.463 15.2307 231.463 14.988C231.472 14.7453 231.481 14.5073 231.491 14.274C231.5 14.0313 231.509 13.8493 231.519 13.728L227.529 20H226.003V12.496H227.165V17.074Z" fill="#D10000"/>
</svg>
