<svg width="202" height="27" viewBox="0 0 202 27" fill="none" xmlns="http://www.w3.org/2000/svg">
    <path d="M12.016 6.312C10.9493 5.77867 9.52 5.512 7.728 5.512C4.95467 5.512 3.568 6.536 3.568 8.584C3.568 9.56533 4.432 10.6 6.16 11.688C7.58933 12.6053 8.70933 13.3307 9.52 13.864C10.3307 14.3973 10.8213 14.7493 10.992 14.92C12.72 16.4347 13.584 18.184 13.584 20.168C13.584 22.3867 12.7307 24.1253 11.024 25.384C9.57333 26.4507 7.83467 26.984 5.808 26.984C3.78133 26.984 1.92533 26.6107 0.24 25.864L0.656 22.312C2.256 23.208 4.016 23.656 5.936 23.656C8.77333 23.656 10.192 22.408 10.192 19.912C10.192 18.9307 9.328 17.864 7.6 16.712C6.04267 15.6667 4.85867 14.8667 4.048 14.312C3.25867 13.7573 2.832 13.4587 2.768 13.416C1.06133 11.944 0.208 10.3333 0.208 8.584C0.208 6.6 0.976 5.01067 2.512 3.816C3.89867 2.74933 5.648 2.216 7.76 2.216C9.50933 2.216 11.12 2.49333 12.592 3.048L12.016 6.312ZM33.5175 18.984H22.7335C22.7975 20.52 23.2135 21.7147 23.9815 22.568C24.7708 23.4853 25.8588 23.944 27.2455 23.944C29.1655 23.944 30.8615 23.528 32.3335 22.696V25.928C30.6268 26.568 28.8988 26.888 27.1495 26.888C24.3975 26.888 22.3495 26.0133 21.0055 24.264C19.8322 22.7067 19.2455 20.5307 19.2455 17.736C19.2455 15.048 19.8962 12.8613 21.1975 11.176C22.4988 9.49067 24.2482 8.648 26.4455 8.648C28.8988 8.648 30.7335 9.52267 31.9495 11.272C32.9948 12.7653 33.5175 14.7387 33.5175 17.192V18.984ZM30.0295 15.944C30.0295 14.7493 29.7202 13.7467 29.1015 12.936C28.4615 12.0827 27.6188 11.656 26.5735 11.656C25.5068 11.656 24.6002 12.0933 23.8535 12.968C23.1068 13.8427 22.7335 14.8347 22.7335 15.944H30.0295ZM49.003 26.536V24.84C47.9577 26.2053 46.4537 26.888 44.491 26.888C42.3577 26.888 40.779 26.2907 39.755 25.096C39.0297 24.2213 38.667 23.1547 38.667 21.896C38.667 17.544 41.867 15.368 48.267 15.368H48.747V14.792C48.747 12.7013 47.7763 11.656 45.835 11.656C44.0857 11.656 42.3577 12.1147 40.651 13.032V9.896C42.2723 9.064 44.0643 8.648 46.027 8.648C48.075 8.648 49.5683 9.128 50.507 10.088C51.5097 11.1333 52.011 12.7547 52.011 14.952V22.408C52.011 24.3707 52.075 25.7467 52.203 26.536H49.003ZM48.747 18.344H48.075C46.411 18.344 45.131 18.4933 44.235 18.792C42.8057 19.2613 42.091 20.1893 42.091 21.576C42.091 23.112 42.9763 23.88 44.747 23.88C47.4137 23.88 48.747 22.2587 48.747 19.016V18.344ZM67.5925 12.2C67.3152 12.1573 67.0592 12.1253 66.8245 12.104C66.5898 12.0613 66.3552 12.04 66.1205 12.04C64.8832 12.04 63.9658 12.648 63.3685 13.864C62.8138 14.9307 62.5365 16.2533 62.5365 17.832V26.504H59.1125V13.32C59.1125 12.5093 59.0912 11.752 59.0485 11.048C59.0272 10.3227 58.9952 9.65067 58.9525 9.032H62.4085V11.176C63.3898 9.49067 64.6378 8.648 66.1525 8.648C66.6218 8.648 67.1018 8.712 67.5925 8.84V12.2ZM84.8175 26.216C83.6228 26.6 82.0975 26.792 80.2415 26.792C77.6175 26.792 75.5482 25.8747 74.0335 24.04C72.6682 22.3973 71.9855 20.296 71.9855 17.736C71.9855 15.112 72.7748 12.9467 74.3535 11.24C75.9535 9.55467 77.9695 8.712 80.4015 8.712C82.0228 8.712 83.4948 8.936 84.8175 9.384L84.5615 12.488C83.3028 11.976 81.9908 11.72 80.6255 11.72C78.9615 11.72 77.6602 12.2747 76.7215 13.384C75.8042 14.472 75.3455 15.9227 75.3455 17.736C75.3455 19.4427 75.8148 20.8827 76.7535 22.056C77.6708 23.208 78.8868 23.784 80.4015 23.784C81.7882 23.784 83.1748 23.528 84.5615 23.016L84.8175 26.216ZM104.606 26.376H101.182V16.136C101.182 14.5787 101 13.4587 100.638 12.776C100.147 11.9653 99.2935 11.56 98.0775 11.56C96.7335 11.56 95.6988 12.1147 94.9735 13.224C94.3548 14.2267 94.0455 15.4853 94.0455 17V26.376H90.6215V0.903999H94.0455V10.536C94.4722 9.832 95.0908 9.29867 95.9015 8.936C96.6908 8.552 97.5335 8.36 98.4295 8.36C100.67 8.36 102.28 9.04267 103.262 10.408C104.158 11.624 104.606 13.4907 104.606 16.008V26.376Z" fill="#D10000"/>
    <path d="M124.268 26.376H112.236V2.696H115.692V23.08H124.268V26.376ZM138.872 26.536V24.84C137.826 26.2053 136.322 26.888 134.36 26.888C132.226 26.888 130.648 26.2907 129.624 25.096C128.898 24.2213 128.536 23.1547 128.536 21.896C128.536 17.544 131.736 15.368 138.136 15.368H138.616V14.792C138.616 12.7013 137.645 11.656 135.704 11.656C133.954 11.656 132.226 12.1147 130.52 13.032V9.896C132.141 9.064 133.933 8.648 135.896 8.648C137.944 8.648 139.437 9.128 140.376 10.088C141.378 11.1333 141.88 12.7547 141.88 14.952V22.408C141.88 24.3707 141.944 25.7467 142.072 26.536H138.872ZM138.616 18.344H137.944C136.28 18.344 135 18.4933 134.104 18.792C132.674 19.2613 131.96 20.1893 131.96 21.576C131.96 23.112 132.845 23.88 134.616 23.88C137.282 23.88 138.616 22.2587 138.616 19.016V18.344ZM163.061 26.504H159.733V15.784C159.733 13.032 158.731 11.656 156.725 11.656C155.36 11.656 154.325 12.2 153.621 13.288C153.045 14.2267 152.757 15.432 152.757 16.904V26.504H149.429V13.48C149.429 12.648 149.408 11.8693 149.365 11.144C149.344 10.3973 149.312 9.69333 149.269 9.032H152.469V10.792C153.515 9.36267 155.061 8.648 157.109 8.648C161.077 8.648 163.061 10.856 163.061 15.272V26.504ZM182.468 26.216C181.273 26.6 179.748 26.792 177.892 26.792C175.268 26.792 173.198 25.8747 171.684 24.04C170.318 22.3973 169.636 20.296 169.636 17.736C169.636 15.112 170.425 12.9467 172.004 11.24C173.604 9.55467 175.62 8.712 178.052 8.712C179.673 8.712 181.145 8.936 182.468 9.384L182.212 12.488C180.953 11.976 179.641 11.72 178.276 11.72C176.612 11.72 175.31 12.2747 174.372 13.384C173.454 14.472 172.996 15.9227 172.996 17.736C172.996 19.4427 173.465 20.8827 174.404 22.056C175.321 23.208 176.537 23.784 178.052 23.784C179.438 23.784 180.825 23.528 182.212 23.016L182.468 26.216ZM201.488 18.984H190.704C190.768 20.52 191.184 21.7147 191.952 22.568C192.741 23.4853 193.829 23.944 195.216 23.944C197.136 23.944 198.832 23.528 200.304 22.696V25.928C198.597 26.568 196.869 26.888 195.12 26.888C192.368 26.888 190.32 26.0133 188.976 24.264C187.802 22.7067 187.216 20.5307 187.216 17.736C187.216 15.048 187.866 12.8613 189.168 11.176C190.469 9.49067 192.218 8.648 194.416 8.648C196.869 8.648 198.704 9.52267 199.92 11.272C200.965 12.7653 201.488 14.7387 201.488 17.192V18.984ZM198 15.944C198 14.7493 197.69 13.7467 197.072 12.936C196.432 12.0827 195.589 11.656 194.544 11.656C193.477 11.656 192.57 12.0933 191.824 12.968C191.077 13.8427 190.704 14.8347 190.704 15.944H198Z" fill="white"/>
</svg>
